<?xml version="1.0" encoding="utf-8"?>
<!-- Generator: Adobe Illustrator 16.0.0, SVG Export Plug-In . SVG Version: 6.00 Build 0)  -->
<!DOCTYPE svg PUBLIC "-//W3C//DTD SVG 1.1//EN" "http://www.w3.org/Graphics/SVG/1.1/DTD/svg11.dtd">
<svg version="1.1" id="Warstwa_1" xmlns="http://www.w3.org/2000/svg" xmlns:xlink="http://www.w3.org/1999/xlink" x="0px" y="0px"
	 width="192px" height="30.11px" viewBox="95.208 14.93 192 30.11" enable-background="new 95.208 14.93 192 30.11"
	 xml:space="preserve">
<polygon fill="#005BAA" points="120.206,27.923 117.994,39.326 102.969,39.326 "/>
<g>
	<g>
		<defs>
			<rect id="SVGID_1_" x="95.208" y="14.93" width="192" height="30.11"/>
		</defs>
		<clipPath id="SVGID_2_">
			<use xlink:href="#SVGID_1_"  overflow="visible"/>
		</clipPath>
		<path clip-path="url(#SVGID_2_)" fill="#005BAA" d="M269.266,25.722h11.153l-0.558,2.718l-8.779,7.969h7.411l-0.597,2.927h-12.102
			l0.578-2.825l8.683-7.884h-6.385L269.266,25.722z M256.714,25.722h10.56l-0.596,2.905h-6.609l-0.444,2.165h6.134l-0.569,2.777
			h-6.132l-0.547,2.682h6.801l-0.63,3.085h-10.753L256.714,25.722z M247.232,31.521h0.965c0.761,0,1.32-0.139,1.688-0.422
			c0.363-0.282,0.592-0.644,0.681-1.082c0.086-0.428,0.028-0.791-0.178-1.087c-0.203-0.297-0.675-0.446-1.412-0.446h-1.123
			L247.232,31.521z M244.46,25.718h6.551c1.426,0,2.421,0.362,2.981,1.087c0.562,0.724,0.706,1.756,0.435,3.091
			c-0.282,1.375-0.89,2.45-1.82,3.223c-0.935,0.773-2.194,1.16-3.784,1.16h-2.155l-1.034,5.053h-3.958L244.46,25.718z
			 M235.983,34.139l-0.41-4.894l-2.403,4.894H235.983z M236.205,37.084h-4.488l-1.077,2.249h-4.027l7.578-13.615h4.297l2.011,13.615
			h-4.125L236.205,37.084z M219.296,31.232h1.663c0.178,0,0.539-0.06,1.081-0.184c0.271-0.057,0.515-0.199,0.728-0.429
			c0.21-0.227,0.347-0.489,0.408-0.788c0.091-0.441,0.027-0.777-0.187-1.012c-0.212-0.237-0.679-0.355-1.396-0.355h-1.73
			L219.296,31.232z M213.681,39.333l2.786-13.615h6.568c1.217,0,2.125,0.11,2.722,0.335c0.598,0.221,1.036,0.634,1.306,1.24
			c0.272,0.602,0.319,1.338,0.139,2.203c-0.153,0.759-0.438,1.407-0.851,1.955c-0.415,0.548-0.92,0.993-1.517,1.335
			c-0.381,0.216-0.878,0.396-1.493,0.534c0.436,0.171,0.741,0.337,0.925,0.506c0.119,0.112,0.282,0.349,0.483,0.714
			c0.201,0.366,0.327,0.645,0.38,0.846l1.099,3.947h-4.454l-1.254-4.163c-0.157-0.536-0.324-0.888-0.501-1.048
			c-0.24-0.212-0.542-0.315-0.901-0.315h-0.347l-1.13,5.526H213.681z M202.653,25.718h11.978l-0.688,3.363h-4.021l-2.097,10.251
			h-3.94l2.097-10.251h-4.018L202.653,25.718z"/>
	</g>
	<g>
		<defs>
			<rect id="SVGID_3_" x="95.208" y="14.93" width="192" height="30.11"/>
		</defs>
		<clipPath id="SVGID_4_">
			<use xlink:href="#SVGID_3_"  overflow="visible"/>
		</clipPath>
		<path display="none" clip-path="url(#SVGID_4_)" fill="#005BAA" d="M284.948,25.724c1.249,0,2.261,1.012,2.261,2.26
			s-1.012,2.259-2.261,2.259c-1.248,0-2.26-1.011-2.26-2.259S283.7,25.724,284.948,25.724 M284.948,26.137L284.948,26.137
			c-1.019,0-1.845,0.827-1.845,1.847c0,1.019,0.825,1.846,1.845,1.846c1.021,0,1.847-0.827,1.847-1.846
			C286.794,26.964,285.968,26.137,284.948,26.137 M286.026,29.135c-0.027-0.057-0.05-0.116-0.067-0.177
			c-0.017-0.061-0.028-0.121-0.034-0.183c-0.006-0.035-0.009-0.069-0.012-0.104c-0.002-0.035-0.004-0.068-0.006-0.102
			c-0.002-0.076-0.01-0.145-0.02-0.207c-0.012-0.063-0.03-0.118-0.057-0.168c-0.025-0.043-0.058-0.084-0.102-0.12
			c-0.043-0.036-0.101-0.065-0.173-0.088c0.137-0.051,0.238-0.127,0.306-0.227c0.065-0.099,0.098-0.219,0.098-0.359
			c-0.002-0.153-0.039-0.278-0.112-0.373c-0.075-0.096-0.173-0.166-0.298-0.21c-0.124-0.044-0.263-0.067-0.415-0.067h-1.109v2.383
			h0.423v-0.972h0.51c0.044,0,0.087,0.001,0.125,0.004c0.039,0.003,0.077,0.008,0.112,0.013c0.041,0.005,0.076,0.014,0.108,0.027
			c0.03,0.013,0.058,0.03,0.082,0.05c0.042,0.038,0.072,0.091,0.091,0.157c0.018,0.067,0.029,0.148,0.031,0.243
			c0.004,0.04,0.006,0.078,0.007,0.113c0.004,0.067,0.012,0.134,0.024,0.202c0.012,0.069,0.027,0.124,0.045,0.165H286.026z
			 M285.534,27.461L285.534,27.461c-0.003,0.145-0.05,0.242-0.138,0.296c-0.089,0.053-0.197,0.077-0.327,0.074h-0.62v-0.735h0.6
			c0.062,0,0.122,0.002,0.183,0.011s0.115,0.026,0.163,0.055c0.046,0.028,0.08,0.067,0.104,0.117
			C285.522,27.328,285.534,27.389,285.534,27.461"/>
	</g>
	<g>
		<defs>
			<rect id="SVGID_5_" x="95.208" y="14.93" width="192" height="30.11"/>
		</defs>
		<clipPath id="SVGID_6_">
			<use xlink:href="#SVGID_5_"  overflow="visible"/>
		</clipPath>
		<path clip-path="url(#SVGID_6_)" fill="#ED1C24" d="M125.178,25.71h7.035c1.171,0,2.008,0.327,2.507,0.976
			c0.5,0.649,0.659,1.454,0.472,2.41c-0.157,0.805-0.516,1.495-1.076,2.072c-0.374,0.384-0.87,0.687-1.487,0.909
			c0.825,0.233,1.389,0.639,1.691,1.21c0.299,0.573,0.364,1.291,0.197,2.154c-0.138,0.707-0.409,1.341-0.811,1.905
			c-0.404,0.563-0.891,1.007-1.463,1.336c-0.354,0.202-0.859,0.351-1.514,0.443c-0.871,0.124-1.444,0.187-1.721,0.187h-6.485
			L125.178,25.71z M127.927,31.047h1.633c0.586,0,1.016-0.114,1.293-0.339c0.273-0.228,0.449-0.554,0.532-0.979
			c0.077-0.396,0.024-0.706-0.161-0.928c-0.189-0.224-0.566-0.336-1.135-0.336h-1.659L127.927,31.047z M126.884,36.389h1.917
			c0.649,0,1.128-0.126,1.441-0.383c0.317-0.257,0.518-0.602,0.602-1.036c0.079-0.402,0.011-0.726-0.204-0.97
			c-0.216-0.244-0.651-0.367-1.311-0.367h-1.907L126.884,36.389z M138.38,25.71h3.76l-2.002,10.252h5.864l-0.655,3.351h-9.621
			L138.38,25.71z M155.154,37.078h-4.28l-1.026,2.245h-3.839l7.225-13.602h4.096l1.916,13.602h-3.932L155.154,37.078z
			 M154.941,34.135l-0.389-4.889l-2.292,4.889H154.941z M168.715,33.778l3.074,1.115c-0.422,1.033-0.938,1.894-1.55,2.587
			c-0.61,0.694-1.304,1.217-2.077,1.568c-0.775,0.354-1.706,0.528-2.792,0.528c-1.322,0-2.361-0.215-3.113-0.642
			c-0.754-0.431-1.331-1.188-1.728-2.271c-0.395-1.082-0.429-2.466-0.1-4.154c0.439-2.252,1.313-3.985,2.618-5.191
			c1.308-1.21,2.938-1.814,4.895-1.814c1.531,0,2.667,0.344,3.41,1.038c0.742,0.693,1.185,1.757,1.33,3.192l-3.479,0.827
			c-0.035-0.414-0.097-0.718-0.188-0.912c-0.147-0.319-0.356-0.566-0.625-0.741c-0.271-0.174-0.594-0.26-0.971-0.26
			c-0.849,0-1.577,0.384-2.18,1.15c-0.453,0.57-0.801,1.463-1.039,2.682c-0.295,1.512-0.29,2.543,0.008,3.103
			c0.301,0.562,0.821,0.842,1.561,0.842c0.718,0,1.306-0.227,1.762-0.678C167.986,35.297,168.38,34.639,168.715,33.778
			 M175.417,25.735h3.756l-0.929,4.76h4.106l0.93-4.76h3.773l-2.655,13.602h-3.774l1.075-5.501h-4.107l-1.073,5.501h-3.757
			L175.417,25.735z M187.746,32.545c0.433-2.221,1.326-3.951,2.671-5.186c1.35-1.238,3.008-1.855,4.981-1.855
			c2.023,0,3.465,0.608,4.323,1.824c0.856,1.213,1.073,2.916,0.646,5.104c-0.311,1.59-0.807,2.896-1.482,3.911
			c-0.678,1.017-1.523,1.809-2.536,2.375c-1.017,0.567-2.194,0.85-3.546,0.85c-1.37,0-2.458-0.245-3.262-0.732
			c-0.802-0.49-1.378-1.263-1.732-2.321C187.458,35.457,187.434,34.133,187.746,32.545 M191.501,32.561
			c-0.269,1.375-0.234,2.36,0.105,2.962c0.338,0.598,0.902,0.9,1.686,0.9c0.806,0,1.488-0.297,2.046-0.883
			c0.557-0.588,0.985-1.643,1.283-3.163c0.251-1.282,0.199-2.216-0.146-2.808c-0.347-0.59-0.915-0.884-1.707-0.884
			c-0.755,0-1.422,0.297-1.997,0.898C192.194,30.184,191.771,31.178,191.501,32.561"/>
	</g>
	<g>
		<defs>
			<rect id="SVGID_7_" x="95.208" y="14.93" width="192" height="30.11"/>
		</defs>
		<clipPath id="SVGID_8_">
			<use xlink:href="#SVGID_7_"  overflow="visible"/>
		</clipPath>
		<rect x="122.523" y="43.854" clip-path="url(#SVGID_8_)" fill="#005BAA" width="157.896" height="1.187"/>
	</g>
	<g>
		<defs>
			<rect id="SVGID_9_" x="95.208" y="14.93" width="192" height="30.11"/>
		</defs>
		<clipPath id="SVGID_10_">
			<use xlink:href="#SVGID_9_"  overflow="visible"/>
		</clipPath>
		<polygon clip-path="url(#SVGID_10_)" fill="#005BAA" points="131.075,14.93 95.208,38.306 95.208,41.709 131.031,18.106 
			136.96,23.554 137.511,20.788 		"/>
	</g>
</g>
</svg>
